# xmcd CD database file
#
# Track frame offsets:
#	150
#	19263
#	40651
#	61655
#	80059
#	99596
#	116883
#	137436
#	159927
#	182053
#	199074
#	222663
#	244221
#	262042
#	285922
#	298059
#
# Disc length: 4252 seconds
#
# Revision: 5
# Processed by: cddbd v1.5PL3 Copyright (c) Steve Scherf et al.
# Submitted via: CDex 1.50
#
DISCID=eb109a10
DTITLE=許\美靜 - Review 1996-1999 精選輯
DYEAR=1900
DGENRE=New Age
TTITLE0=你抽的煙
TTITLE1=鐵窗
TTITLE2=遺憾
TTITLE3=顏色
TTITLE4=明知道
TTITLE5=影子情人
TTITLE6=快樂無罪
TTITLE7=都是夜歸人
TTITLE8=蔓延
TTITLE9=讓位
TTITLE10=蕩漾
TTITLE11=單數
TTITLE12=只是這人生
TTITLE13=城裡的月光
TTITLE14=發呆
TTITLE15=邊界 1999
EXTD=
EXTT0=
EXTT1=
EXTT2=
EXTT3=
EXTT4=
EXTT5=
EXTT6=
EXTT7=
EXTT8=
EXTT9=
EXTT10=
EXTT11=
EXTT12=
EXTT13=
EXTT14=
EXTT15=
PLAYORDER=
